<svg width="127" height="44" fill="none" xmlns="http://www.w3.org/2000/svg"><g opacity=".5" fill-rule="evenodd" clip-rule="evenodd" fill="#000"><path d="M5.701 1.044L3.307.935 2.321.761 2.123.435C2.123.13 2.37 0 2.864 0h24.752c11.599 0 19.742 3.11 24.48 9.354 2.715 3.61 4.072 7.896 4.072 12.856 0 2.589-.444 5.09-1.357 7.505a22.208 22.208 0 01-4.319 6.787c-2.024 2.11-4.49 3.742-7.33 4.938-3.035 1.218-6.44 1.85-10.265 1.85H1.333c-.518 0-.765-.153-.765-.414 0-.283.37-.434 1.061-.434l6.047-.326c.938-.11 1.604-.35 1.925-.675l.617-.762c.222-.521.346-1.304.37-2.37V3.807c0-1.349-.863-2.175-2.541-2.502L5.7 1.045zm13.327.588l-.173.87v38.307c0 .435.098.739.296.849l.987.13h3.257l7.552-.24c2.023-.195 3.75-.478 5.108-.87a14.523 14.523 0 003.75-1.826c.988-.718 2-1.74 3.11-3.046 1.85-2.131 3.183-4.85 3.998-8.179.493-2.174.74-4.285.74-6.308 0-1.783-.296-3.698-.913-5.764-.863-2.98-2.172-5.59-4.023-7.81-3.578-4.307-9.451-6.439-17.57-6.439h-5.01c-.567-.044-.937.065-1.11.326zm42.001 41.33c-.049-.26.198-.37.741-.37l1.727-.043c.938-.109 1.506-.391 1.728-.827l.32-1.566V27.518c0-.479-.197-.849-.567-1.066l-1.283-.11-1.728.414-.938-.044c-.123-.26.247-.5 1.11-.718 2.049-.478 3.851-1.087 5.38-1.849.938-.478 1.604-.74 1.9-.848l.74-.065c.248.043.372.479.372 1.261v15.923c0 .76.197 1.305.568 1.631.443.392 1.48.588 3.084.588.567 0 .863.11.913.347 0 .197-.172.262-.47.262H61.474c-.296.002-.444-.108-.444-.281zM119.27 27.3c-1.209 1.11-2.023 2.415-2.468 3.98v9.246c0 .827.321 1.414.987 1.784l1.507.238 1.578.153c.371.044.519.11.519.283l-.073.152-.42.11h-13.203c-.395 0-.616-.11-.616-.283l.369-.262 2.222-.152c.863-.13 1.407-.391 1.703-.783l.371-.979V27.736l-.248-.958-.419-.217c-.124-.108-.321-.174-.617-.218a3.24 3.24 0 00-1.283.218l-1.258.305-.717-.153c-.123-.152-.073-.26.099-.326l1.061-.391c2.418-.631 4.368-1.284 5.726-1.957l1.677-.806.741.043.296.545v4.785c1.852-2.654 3.332-4.285 4.344-4.83.616-.325 1.209-.587 1.654-.695l.863-.065c.542-.044 1.16.108 1.85.5.939.479 1.432 1.196 1.481 2.11.05.761-.198 1.35-.741 1.805-.493.37-.987.48-1.431.37-.419-.065-.74-.217-.962-.435l-.691-.76c-.543-.697-1.061-.915-1.678-.718-.718.172-1.457.651-2.223 1.412zM67.693 9.42c-.914 0-1.654.282-2.27.826-.667.544-.988 1.24-.94 2.045-.048.761.273 1.414.94 1.958.616.544 1.357.826 2.27.826.863 0 1.628-.283 2.245-.826.616-.544.962-1.196.962-1.958 0-.805-.346-1.501-.962-2.045-.617-.544-1.382-.827-2.245-.827zm13.079 17.358c.888-1.044 2-1.914 3.331-2.61 1.186-.61 2.37-1 3.604-1.197l4.565-.239c1.653.065 3.184.348 4.566.892 3.332 1.305 5.429 3.698 6.218 7.178.814 3.524.124 6.505-2.048 8.92-1.85 2.044-4.294 3.35-7.379 3.914-3.232.631-6.243.435-8.958-.543-3.53-1.262-5.675-3.763-6.367-7.418-.617-3.458.197-6.395 2.468-8.897zm14.46-.978c-1.505-1.479-3.405-2.132-5.7-1.959-2.22.197-3.923 1.284-5.034 3.35-1.011 1.871-1.383 4.156-1.011 6.853.27 2.676 1.234 4.807 2.787 6.439 1.654 1.719 3.53 2.436 5.627 2.11 2.196-.37 3.801-1.414 4.862-3.154 1.036-1.783 1.406-4.09 1.159-7.026-.295-2.937-1.158-5.113-2.69-6.613zm-34.376.957v.217l-.543-.305v.109l.05.196h-.075v-.414h.025l.493.327v-.327h.099l-.049.197z"/><path d="M61.77 26.605h-.296v.152h.247v.02h-.247v.153h.296v.045h-.37v-.415h.37v.045zm1.358-.045h.025l-.247.414h-.074l-.198-.327-.222.327h-.025c-.124-.196-.222-.327-.247-.414h.124l.148.328.222-.328h.074l.173.328.197-.328h.05zm.69.218l.05.197h-.123v-.152l-.247-.263h.123l.197.218.198-.218h.099l-.297.218zm.692-.13a.512.512 0 01.296-.087c.124 0 .198.044.296.087.024.022.074.065.074.13l-.074.153c-.098.044-.173.044-.296.044s-.247 0-.296-.044l-.125-.152c.001-.066.051-.109.125-.131zm.494 0l-.198-.043-.197.043c-.05.022-.099.065-.099.13 0 .045.049.087.099.11l.197.087c.073 0 .173-.044.198-.087.048-.022.098-.065.098-.11 0-.065-.05-.108-.098-.13zm.74-.043l-.025.152h.073c.123 0 .198-.044.198-.087 0-.022-.025-.065-.149-.065h-.097zm.123-.045c.124 0 .221.045.221.11l-.098.087-.124.02.297.197h-.125l-.296-.196h-.023l.025.196h-.125v-.414h.248zm1.234 0l-.32.197.32.218h-.123l-.272-.197v-.021l-.05.02.05.198h-.124v-.415h.124l-.05.197h.05l.321-.197h.074z"/></g></svg>