<svg width="215" height="30" fill="none" xmlns="http://www.w3.org/2000/svg"><path opacity=".5" fill-rule="evenodd" clip-rule="evenodd" d="M207.238 1.03h7.534c-.835.582-1.335 1.294-1.335 2.269v23.293c0 .973.522 1.667 1.335 2.248h-7.534c.813-.58 1.314-1.293 1.314-2.248V3.298c.001-.975-.479-1.687-1.314-2.267zM32.632 11.038C31.4 8.657 30.044 6.315 27.77 4.61c-2.42-1.836-5.49-2.941-8.662-2.941-8.43 0-12.209 6.839-12.209 13.566 0 6.503 3.612 13.08 11.75 13.08 3.317 0 6.553-1.293 8.597-3.636v-5.247c0-1.424-.522-2.341-1.753-3.184h8.62c-.92.936-1.481 1.892-1.481 3.184v5.247C28.687 27.978 23.783 30 18.336 30 8.716 30 .848 23.648.848 14.803.848 6.015 8.61 0 18.107 0c5.906 0 10.684 1.95 14.525 5.866v5.17zM53.75 1.03h8.118c-1.106.73-1.481 1.555-1.481 2.773V20.8c0 4.664 6.093 6.951 10.56 6.951 4.382 0 10.1-2.304 10.1-6.858V3.804c0-1.144-.313-1.93-1.168-2.773h4.424c-.897.825-1.23 1.648-1.23 2.773v17.09c0 6.146-8.076 8.507-13.67 8.507-5.759 0-14.17-2.285-14.17-8.6V3.804c0-1.162-.523-2.024-1.483-2.773zm81.304 10.1c-1.084-2.456-2.358-4.61-4.591-6.39-2.399-1.912-5.321-3.11-8.555-3.11-8.346 0-12.625 6.558-12.625 13.36 0 6.84 4.446 13.304 12.688 13.304 6.136 0 10.519-3.879 13.084-8.546v5.06c-3.816 3.393-8.743 5.117-14.127 5.117-9.976 0-17.447-5.79-17.447-15.028 0-8.975 7.178-14.878 16.967-14.878 5.425 0 10.682 1.687 14.606 5.041v6.07zm52.339 0c-1.084-2.456-2.36-4.61-4.591-6.39-2.399-1.912-5.321-3.11-8.555-3.11-8.349 0-12.606 6.558-12.606 13.36 0 6.84 4.424 13.304 12.669 13.304 6.136 0 10.537-3.879 13.085-8.546v5.06c-3.82 3.393-8.725 5.117-14.127 5.117-9.977 0-17.446-5.79-17.446-15.028C155.822 5.923 163 .02 172.786.02c5.425 0 10.685 1.687 14.609 5.041l-.002 6.07z" fill="#000"/></svg>