<svg width="20" height="20" fill="none" xmlns="http://www.w3.org/2000/svg"><g opacity=".5" clip-path="url(#clip0_445_15089)"><path d="M19.826 18.98l-4.86-4.86a8.493 8.493 0 002.093-5.592C17.06 3.823 13.232 0 8.532 0 3.827 0 .004 3.827.004 8.528c0 4.7 3.827 8.527 8.528 8.527a8.493 8.493 0 005.592-2.093l4.86 4.86a.584.584 0 00.843 0 .6.6 0 000-.842zM1.197 8.528c0-4.045 3.291-7.33 7.331-7.33 4.045 0 7.33 3.29 7.33 7.33s-3.285 7.335-7.33 7.335c-4.04 0-7.33-3.29-7.33-7.335z" fill="#6C6C6C"/></g><defs><clipPath id="clip0_445_15089"><path fill="#fff" d="M0 0h20v20H0z"/></clipPath></defs></svg>