<svg width="299" height="30" fill="none" xmlns="http://www.w3.org/2000/svg"><path opacity=".5" fill-rule="evenodd" clip-rule="evenodd" d="M0 .93h9.747c6.899.062 12.537 6.352 12.537 14.038 0 7.716-5.638 14.005-12.537 14.07H0V.929zm4.26 3.408v21.383h4.378c6.298-.183 9.418-5.236 9.418-10.628 0-5.362-3.179-9.731-8.307-10.63l-5.49-.125zM38.69.28c8.277 0 15.025 6.631 15.025 14.72 0 8.09-6.748 14.69-15.025 14.69-8.247 0-14.996-6.603-14.996-14.69S30.443.28 38.69.28zm.06 3.564c5.998 0 10.886 4.989 10.886 11.125 0 6.103-4.888 11.095-10.886 11.095-5.997 0-10.916-4.99-10.916-11.095C27.832 8.832 32.75 3.843 38.75 3.843zM54.885.993h4.018v24.79h7.678v3.223H54.885V.992zm24.744-.87c3.118 0 6.027.962 8.427 2.573V7.81c-2.01-2.48-5.008-4.09-8.397-4.09-5.998 0-10.886 5.05-10.886 11.248 0 6.167 4.889 11.217 10.886 11.217 3.39 0 6.389-1.61 8.397-4.089v5.175a14.895 14.895 0 0 1-8.427 2.602c-8.278 0-15.026-6.694-15.026-14.876 0-8.18 6.748-14.873 15.026-14.873zm13.915 25.568h9.717v3.315H89.315V.99h13.946v3.162h-9.717v8.336h9.717v3.408h-9.717v9.795zm25.012 1.549a5.48 5.48 0 0 1-1.498 1.055c-.551.31-1.149.52-1.769.619-.15.033-.3.06-.45.06-.151.034-.301.034-.449.034-.421 0-.841-.061-1.261-.155a3.603 3.603 0 0 1-1.139-.59 3.397 3.397 0 0 1-.93-1.205 3.75 3.75 0 0 1-.479-1.489v-.186c-.03-.091-.03-.155-.03-.216 0-.062 0-.095.03-.156v-.247c.03-.03.03-.03.03-.061v-.217c.181-.866.571-1.55 1.17-2.108a10.396 10.396 0 0 1 1.859-1.457 13.776 13.776 0 0 1-.989-1.364 2.607 2.607 0 0 1-.45-1.486v-.247c.03-.061.03-.123.03-.217.031 0 .031-.033.031-.06v-.034a.246.246 0 0 0 .03-.122c0-.033.03-.06.03-.094.15-.683.48-1.208 1.02-1.58a3.33 3.33 0 0 1 1.679-.59h.389a3.604 3.604 0 0 1 2.01.84c.601.463.9 1.144.9 2.043 0 .836-.27 1.519-.75 2.016-.479.525-1.049.99-1.65 1.425l2.881 3.595c.27-.342.568-.683.838-1.022.24-.342.51-.716.721-1.086l.989 1.055a5.239 5.239 0 0 1-.63.96c-.209.278-.45.59-.69.867a8.549 8.549 0 0 0-.18.187l-.181.183 2.099 2.635h-1.859l-1.352-1.585zm-3.628.403c.51-.061.989-.217 1.409-.497.42-.281.821-.59 1.2-.928.03 0 .061-.033.091-.061.03 0 .061-.033.091-.061l-3.27-4.03c-.031 0-.031.033-.059.061-.031 0-.061.033-.091.061-.06.033-.09.065-.151.095-.03 0-.059.032-.091.064-.27.183-.509.371-.749.555-.24.186-.451.435-.631.683-.061.122-.15.248-.209.403a1.736 1.736 0 0 0-.15.432l-.09.375c-.03.122-.03.248-.03.371 0 .652.239 1.242.72 1.767a2.31 2.31 0 0 0 1.769.774s.03 0 .03-.03h.122c.03 0 .03-.033.06-.033l.029-.001zm-1.2-9.824v.094c0 .033-.03.06-.03.094v.061c0 .342.089.652.27.931.179.31.39.586.629.835.061.095.15.187.211.278.059.094.15.158.209.247.061-.03.09-.06.151-.09a.217.217 0 0 1 .15-.065c.359-.216.66-.464.96-.741.3-.28.479-.622.54-1.055v-.188c0-.03.03-.061.03-.094v-.061c0-.433-.15-.806-.449-1.055a1.651 1.651 0 0 0-.99-.464h-.272c-.3 0-.599.125-.869.31a1.329 1.329 0 0 0-.371.42c-.093.167-.151.352-.169.543zM143.66 0c5.396 0 10.167 2.85 12.835 7.097l-3.507 1.859A11.143 11.143 0 0 0 149 5.068a10.712 10.712 0 0 0-5.31-1.411c-6.058-.032-10.977 5.051-10.977 11.31 0 6.23 4.919 11.312 10.977 11.312 5.098 0 9.118-2.635 9.416-8.119h-8.756v-3.316h8.547c0-.063 4.35 0 4.619 0v.155c0 8.77-4.619 15.001-13.855 15.001-9.268 0-15.145-6.758-15.145-15 0-8.243 6.806-15 15.144-15zm11.578 29.006L166.453.9h2.671l11.305 28.106h-4.41l-3.117-7.935h-10.287l-3.057 7.935h-4.32zm8.937-11.498 3.628-9.977 3.689 9.977h-7.317zm55.664 11.498L231.056.9h2.668l11.308 28.106h-4.41l-3.12-7.935h-10.287l-3.058 7.935h-4.318zm8.967-11.498 3.598-9.977 3.689 9.977h-7.287zm44.895 11.498L284.918.9h2.668l11.308 28.106h-4.409l-3.121-7.935h-10.287l-3.057 7.935h-4.319zm8.937-11.498 3.628-9.977 3.693 9.977h-7.321zM190.146 4.185c2.671.31 3.66 1.487 3.66 4.246.032 2.757-1.801 4.214-4.138 4.214h-3.542V4.153h4.02v.032zm.21 11.867h.21c1.978 0 5.516.468 5.516 5.02 0 3.66-3.089 4.712-6.024 4.682l.717.03h-4.649v-9.732h4.23zm-5.219 12.954h7.018c4.8 0 8.251-3.253 8.251-7.935 0-3.592-2.164-6.353-5.222-7.435 1.742-1.148 2.731-3.193 2.731-5.796 0-4.246-2.762-6.848-6.84-6.942-2.219-.031-4.468 0-6.718 0h-2.458v28.107l3.238.001zm25.611-24.821c2.672.31 3.661 1.487 3.693 4.246.028 2.757-1.801 4.214-4.141 4.214h-3.539V4.153h3.987v.032zm.24 11.867h.213c1.947 0 5.516.468 5.516 5.02 0 3.66-3.117 4.712-6.028 4.682l.691.03h-4.619v-9.732h4.227zm-5.216 12.954h7.018c4.768 0 8.247-3.253 8.247-7.935 0-3.592-2.187-6.353-5.248-7.435 1.769-1.148 2.73-3.193 2.73-5.796 0-4.246-2.759-6.848-6.809-6.942-2.249-.031-4.499 0-6.746 0h-2.43v28.107l3.238.001zM246.829.992h2.58l19.044 20.792V.992h3.689v28.014h-2.818L250.667 8.43v20.577h-3.838V.992z" fill="#000"/></svg>