<svg width="40" height="33" fill="none" xmlns="http://www.w3.org/2000/svg"><path d="M39.794 11.127 29.745.69l-.012-.012a.7.7 0 0 0-.04-.037l-.026-.02L29.638.6l-.03-.02-.029-.017-.03-.015-.032-.016-.03-.011c-.012-.004-.023-.01-.036-.013L29.423.5l-.038-.01-.032-.004C29.341.484 29.33.48 29.316.48l-.05-.003H10.728l-.045.003-.04.006-.028.005-.041.01-.026.007-.038.014-.027.01-.035.017c-.01.004-.018.009-.027.014-.012.006-.023.013-.033.02l-.026.016-.035.027-.021.016a.701.701 0 0 0-.052.049L.206 11.127l-.012.014a.688.688 0 0 0-.034.04c-.008.009-.015.02-.022.03l-.02.026-.02.035-.015.027-.016.035c-.005.01-.01.02-.013.03l-.003.004-.01.03-.01.033-.01.036-.007.034-.007.042-.003.028a.74.74 0 0 0 0 .145c0 .01.002.02.004.029l.006.042.008.033.008.036.011.033.013.035.013.029.016.035.015.027.02.035.02.027.022.03c.01.014.022.027.034.04l.012.013L19.503 32.2a.689.689 0 0 0 .995 0l19.296-20.04a.751.751 0 0 0 0-1.033zm-28.75-9.189h5.229l-5.892 8.975H2.402l8.642-8.975zm10.98 0 5.892 8.975H12.084l5.892-8.975h4.048zm6.932 0 8.641 8.975H29.62l-5.892-8.975h5.229zm-.844 10.436L20 29.32l-8.112-16.946h16.224zm-17.795 0L18.14 28.72 2.402 12.374h7.915zm19.367 0h7.913L21.86 28.72l7.825-16.346z" fill="#8932B4"/></svg>