<svg width="22" height="18" viewBox="0 0 22 18" fill="none" xmlns="http://www.w3.org/2000/svg">
<path d="M21 3.72949L16 3.72949" stroke="#151515" stroke-width="1.2" stroke-miterlimit="10" stroke-linecap="round" stroke-linejoin="round"/>
<path d="M1 14.082L6 14.082" stroke="#151515" stroke-width="1.2" stroke-miterlimit="10" stroke-linecap="round" stroke-linejoin="round"/>
<path d="M10 3.72949L1 3.72949" stroke="#151515" stroke-width="1.2" stroke-miterlimit="10" stroke-linecap="round" stroke-linejoin="round"/>
<path d="M12 14.082L21 14.082" stroke="#151515" stroke-width="1.2" stroke-miterlimit="10" stroke-linecap="round" stroke-linejoin="round"/>
<path d="M13 0.999913C14.6569 0.999913 16 2.26401 16 3.82344C16 5.38288 14.6569 6.64697 13 6.64697C11.3431 6.64697 10 5.38288 10 3.82344C10 2.26401 11.3431 0.999914 13 0.999913Z" stroke="#151515" stroke-width="1.2" stroke-miterlimit="10" stroke-linecap="round" stroke-linejoin="round"/>
<path d="M9 11.3529C7.3431 11.3529 6 12.6171 6 14.1765C6 15.7359 7.3431 17 9 17C10.6569 17 12 15.7359 12 14.1765C12 12.6171 10.6569 11.3529 9 11.3529Z" stroke="#151515" stroke-width="1.2" stroke-miterlimit="10" stroke-linecap="round" stroke-linejoin="round"/>
</svg>
