<svg width="23" height="23" fill="none" xmlns="http://www.w3.org/2000/svg"><path d="M18.18 1H4.82A3.82 3.82 0 0 0 1 4.82v13.36A3.82 3.82 0 0 0 4.82 22h13.36A3.82 3.82 0 0 0 22 18.18V4.82A3.82 3.82 0 0 0 18.18 1z" stroke="#8932B4" stroke-width="2" stroke-miterlimit="10"/><path d="M11.5 16.27a4.77 4.77 0 1 0 0-9.54 4.77 4.77 0 0 0 0 9.54z" stroke="#8932B4" stroke-width="2" stroke-miterlimit="10"/><path d="M18.13 5.3a.43.43 0 1 1-.86 0 .43.43 0 0 1 .86 0z" fill="#8932B4" stroke="#8932B4" stroke-width="2"/></svg>