<svg width="23" height="23" fill="none" xmlns="http://www.w3.org/2000/svg"><path d="m21.775 4.218-2.929-2.925a1.892 1.892 0 0 0-2.684 0L13.008 4.44a1.898 1.898 0 0 0 0 2.69l2.464 2.466a11.149 11.149 0 0 1-2.376 3.5 11.17 11.17 0 0 1-3.498 2.381l-2.464-2.466a1.892 1.892 0 0 0-2.684 0L1.293 16.16a1.898 1.898 0 0 0 0 2.69l2.926 2.925c.61.61 1.452.96 2.315.96.179 0 .352-.014.528-.045 3.641-.599 7.255-2.538 10.172-5.452 2.915-2.92 4.851-6.533 5.456-10.177a3.278 3.278 0 0 0-.915-2.843zM20.74 6.734c-.537 3.242-2.28 6.476-4.906 9.101-2.627 2.626-5.858 4.37-9.1 4.906a1.294 1.294 0 0 1-1.122-.363l-2.874-2.873 3.047-3.05 3.295 3.3.024.024.594-.22a13.235 13.235 0 0 0 7.857-7.858l.22-.594-3.322-3.319 3.047-3.05 2.874 2.874c.297.297.434.715.366 1.122z" fill="#8932B4"/></svg>