<svg width="25" height="25" fill="none" xmlns="http://www.w3.org/2000/svg"><path fill-rule="evenodd" clip-rule="evenodd" d="M21.354 3.646A12.49 12.49 0 0 0 12.5 0C5.635 0 0 5.635 0 12.5c0 2.198.677 4.281 1.77 6.167L0 25l6.594-1.615C8.417 24.385 10.417 25 12.5 25 19.365 25 25 19.365 25 12.5c0-3.323-1.292-6.5-3.646-8.854zM12.5 22.916c-1.854 0-3.625-.614-5.219-1.551l-.375-.23-3.916 1.032 1.041-3.823-.25-.396c-1.031-1.646-1.698-3.49-1.698-5.448 0-5.708 4.709-10.417 10.417-10.417 2.76 0 5.417 1.094 7.375 3.052a10.397 10.397 0 0 1 3.042 7.365c0 5.708-4.72 10.417-10.417 10.417zm5.73-7.864c-.313-.156-1.845-.906-2.126-1.01-.281-.104-.49-.157-.698.156-.208.312-.802 1.01-.99 1.219-.176.208-.364.229-.676.073-.313-.157-1.313-.48-2.5-1.542-.928-.823-1.553-1.844-1.73-2.156-.177-.313-.02-.48.136-.636.135-.135.312-.364.469-.541.156-.178.208-.313.312-.521.104-.209.052-.386-.02-.542-.084-.156-.71-1.687-.97-2.312-.25-.605-.51-.521-.697-.532-.178-.01-.386-.01-.594-.01-.209 0-.542.083-.834.385-.28.313-1.083 1.073-1.083 2.604 0 1.532 1.115 3.01 1.271 3.22.156.208 2.198 3.353 5.313 4.697.74.323 1.322.51 1.77.656.75.24 1.427.209 1.959.125.593-.093 1.843-.75 2.104-1.479.26-.729.26-1.354.177-1.479-.073-.135-.281-.219-.594-.375z" fill="#8932B4"/></svg>