<svg display="none" xmlns="http://www.w3.org/2000/svg">
    <symbol id="search" viewBox="0 0 23 23" width="23" height="23">
        <svg width="23" height="23" fill="none" xmlns="http://www.w3.org/2000/svg"><g clip-path="url(#a)"><path d="m22.798 21.827-5.59-5.59a9.767 9.767 0 0 0 2.408-6.43C19.616 4.396 15.215 0 9.809 0 4.398 0 .002 4.401.002 9.807c0 5.406 4.401 9.807 9.807 9.807a9.767 9.767 0 0 0 6.43-2.407l5.59 5.589a.693.693 0 0 0 .485.204.69.69 0 0 0 .484-1.173zM1.374 9.807c0-4.651 3.784-8.43 8.43-8.43 4.65 0 8.43 3.784 8.43 8.43s-3.78 8.435-8.43 8.435c-4.646 0-8.43-3.784-8.43-8.435z" fill="#151515"/></g><defs><clipPath id="a"><path fill="#fff" d="M0 0h23v23H0z"/></clipPath></defs></svg>
    </symbol>
    <symbol id="heart" viewBox="0 0 25 23" width="25" height="23">
        <svg width="25" height="23" fill="none" xmlns="http://www.w3.org/2000/svg"><path d="M22.98 2.135C21.673.765 19.94.017 18.09.017S14.5.77 13.192 2.14l-.684.715-.694-.726C10.504.76 8.76 0 6.91 0 5.067 0 3.328.754 2.025 2.119.715 3.489-.005 5.308 0 7.243c0 1.936.726 3.75 2.035 5.12l9.954 10.415a.704.704 0 0 0 .503.222c.18 0 .366-.072.503-.216l9.975-10.4C24.28 11.015 25 9.197 25 7.26c.005-1.936-.71-3.755-2.02-5.125zm-1.017 9.19-9.47 9.873-9.45-9.89A5.847 5.847 0 0 1 1.43 7.244c0-1.536.567-2.978 1.606-4.06 1.033-1.081 2.411-1.68 3.874-1.68 1.468 0 2.852.599 3.89 1.686L12 4.442a.691.691 0 0 0 1.012 0L14.2 3.2c1.038-1.087 2.422-1.686 3.885-1.686 1.462 0 2.84.6 3.88 1.68 1.038 1.088 1.605 2.53 1.605 4.066a5.819 5.819 0 0 1-1.606 4.065z" fill="#151515"/></svg>
    </symbol>
    <symbol id="user" viewBox="0 0 25 24" width="25" height="24">
        <svg width="25" height="24" fill="none" xmlns="http://www.w3.org/2000/svg"><path d="M18.022 6.216c0 2.933-2.45 5.35-5.522 5.35s-5.522-2.418-5.522-5.35c0-2.932 2.45-5.35 5.522-5.35 3.073 0 5.522 2.418 5.522 5.35z" stroke="#151515" stroke-width="1.733"/><path d="M1 23C5.469 9.442 18.886 8.783 24 23" stroke="#151515" stroke-width="1.733"/></svg>
    </symbol>
    <symbol id="basket" viewBox="0 0 23 25" width="23" height="25">
        <svg width="23" height="25" fill="none" xmlns="http://www.w3.org/2000/svg"><path d="M5.111 6.61c2.485-7.296 9.939-7.661 12.778 0M1.277 6.304h20.445M0 23.133h23" stroke="#151515" stroke-width="1.733"/><path transform="matrix(-.0757 .99713 -.9983 -.05844 1.277 6.049)" stroke="#151515" stroke-width="1.733" d="M0-.867h16.878"/><path transform="matrix(.0757 .99713 .9983 -.05844 21.723 7.17)" stroke="#151515" stroke-width="1.733" d="M0-.867h16.878"/></svg>
    </symbol>
    <symbol id="plus" viewBox="0 0 16 16" width="16" height="16">
        <svg width="16" height="16" fill="none" xmlns="http://www.w3.org/2000/svg">
            <line x1="0.5" y1="8" x2="15.5" y2="8" stroke="#151515"/>
            <line x1="8" y1="15.5" x2="8" y2="0.5" stroke="#151515"/>
        </svg>
    </symbol>
    <symbol id="minus" viewBox="0 0 16 1" width="16" height="1">
        <svg width="16" height="1" fill="none" xmlns="http://www.w3.org/2000/svg">
            <line x1="0.5" y1="0.5" x2="15.5" y2="0.5" stroke="#151515"/>
        </svg>
    </symbol>
</svg>