<svg display="none" xmlns="http://www.w3.org/2000/svg">
    <symbol id="search" viewBox="0 0 23 23" width="23" height="23">
        <svg width="23" height="23" fill="none" xmlns="http://www.w3.org/2000/svg"><g clip-path="url(#a)"><path d="m22.798 21.827-5.59-5.59a9.767 9.767 0 0 0 2.408-6.43C19.616 4.396 15.215 0 9.809 0 4.398 0 .002 4.401.002 9.807c0 5.406 4.401 9.807 9.807 9.807a9.767 9.767 0 0 0 6.43-2.407l5.59 5.589a.693.693 0 0 0 .485.204.69.69 0 0 0 .484-1.173zM1.374 9.807c0-4.651 3.784-8.43 8.43-8.43 4.65 0 8.43 3.784 8.43 8.43s-3.78 8.435-8.43 8.435c-4.646 0-8.43-3.784-8.43-8.435z" fill="#151515"/></g><defs><clipPath id="a"><path fill="#fff" d="M0 0h23v23H0z"/></clipPath></defs></svg>
    </symbol>
    <symbol id="heart" viewBox="0 0 25 23" width="25" height="23">
        <svg width="25" height="23" fill="none" xmlns="http://www.w3.org/2000/svg"><path d="M22.98 2.135C21.673.765 19.94.017 18.09.017S14.5.77 13.192 2.14l-.684.715-.694-.726C10.504.76 8.76 0 6.91 0 5.067 0 3.328.754 2.025 2.119.715 3.489-.005 5.308 0 7.243c0 1.936.726 3.75 2.035 5.12l9.954 10.415a.704.704 0 0 0 .503.222c.18 0 .366-.072.503-.216l9.975-10.4C24.28 11.015 25 9.197 25 7.26c.005-1.936-.71-3.755-2.02-5.125zm-1.017 9.19-9.47 9.873-9.45-9.89A5.847 5.847 0 0 1 1.43 7.244c0-1.536.567-2.978 1.606-4.06 1.033-1.081 2.411-1.68 3.874-1.68 1.468 0 2.852.599 3.89 1.686L12 4.442a.691.691 0 0 0 1.012 0L14.2 3.2c1.038-1.087 2.422-1.686 3.885-1.686 1.462 0 2.84.6 3.88 1.68 1.038 1.088 1.605 2.53 1.605 4.066a5.819 5.819 0 0 1-1.606 4.065z" fill="#151515"/></svg>
    </symbol>
    <symbol id="user" viewBox="0 0 25 24" width="25" height="24">
        <svg width="25" height="24" fill="none" xmlns="http://www.w3.org/2000/svg"><path d="M18.022 6.216c0 2.933-2.45 5.35-5.522 5.35s-5.522-2.418-5.522-5.35c0-2.932 2.45-5.35 5.522-5.35 3.073 0 5.522 2.418 5.522 5.35z" stroke="#151515" stroke-width="1.733"/><path d="M1 23C5.469 9.442 18.886 8.783 24 23" stroke="#151515" stroke-width="1.733"/></svg>
    </symbol>
    <symbol id="basket" viewBox="0 0 23 25" width="23" height="25">
        <svg width="23" height="25" fill="none" xmlns="http://www.w3.org/2000/svg"><path d="M5.111 6.61c2.485-7.296 9.939-7.661 12.778 0M1.277 6.304h20.445M0 23.133h23" stroke="#151515" stroke-width="1.733"/><path transform="matrix(-.0757 .99713 -.9983 -.05844 1.277 6.049)" stroke="#151515" stroke-width="1.733" d="M0-.867h16.878"/><path transform="matrix(.0757 .99713 .9983 -.05844 21.723 7.17)" stroke="#151515" stroke-width="1.733" d="M0-.867h16.878"/></svg>
    </symbol>
    <symbol id="plus" viewBox="0 0 16 16" width="16" height="16">
        <svg width="16" height="16" fill="none" xmlns="http://www.w3.org/2000/svg">
            <line x1="0.5" y1="8" x2="15.5" y2="8" stroke="#151515"/>
            <line x1="8" y1="15.5" x2="8" y2="0.5" stroke="#151515"/>
        </svg>
    </symbol>
    <symbol id="minus" viewBox="0 0 16 1" width="16" height="1">
        <svg width="16" height="1" fill="none" xmlns="http://www.w3.org/2000/svg">
            <line x1="0.5" y1="0.5" x2="15.5" y2="0.5" stroke="#151515"/>
        </svg>
    </symbol>
    <symbol id="edit" viewBox="0 0 22 22" width="22" height="22">
        <svg width="22" height="22" viewBox="0 0 22 22" fill="none" xmlns="http://www.w3.org/2000/svg">
            <path d="M22 4.50932C22 4.23602 21.9088 4.00828 21.7263 3.82609L18.168 0.273292C17.803 -0.0910973 17.21 -0.0910973 16.7994 0.273292L14.1078 2.96066L1.19751 15.8965C1.06065 16.0331 0.969414 16.2153 0.923795 16.3975L0.0114049 20.8613C-0.0342146 21.1801 0.0570244 21.499 0.285122 21.7267C0.4676 21.9089 0.695697 22 0.969414 22C1.01503 22 1.10627 22 1.15189 22L5.6226 21.089C5.80508 21.0435 5.98756 20.9524 6.12442 20.8157L21.7263 5.2381C21.9088 5.01035 22 4.78261 22 4.50932ZM4.93831 19.2215L2.15552 19.7681L2.74857 17.0352L14.7921 5.01035L16.9819 7.19669L4.93831 19.2215ZM18.3504 5.87578L16.1607 3.68944L17.5293 2.32298L19.719 4.50932L18.3504 5.87578Z" fill="#8932B4"/>
        </svg>
    </symbol>
    <symbol id="camera" viewBox="0 0 18 15" width="18" height="15">
        <svg width="18" height="15" viewBox="0 0 18 15" fill="none" xmlns="http://www.w3.org/2000/svg">
            <path fill-rule="evenodd" clip-rule="evenodd" d="M6.86267 1.37551C6.85204 1.39081 6.84208 1.40973 6.83473 1.43153C6.83283 1.4372 6.83083 1.44284 6.82876 1.44847L6.27722 2.944C6.17476 3.22184 5.88847 3.40909 5.56612 3.40909H2.25C1.83579 3.40909 1.5 3.71435 1.5 4.09091V12.9545C1.5 13.3311 1.83578 13.6364 2.25 13.6364H15.75C16.1642 13.6364 16.5 13.3311 16.5 12.9545V4.09091C16.5 3.71435 16.1642 3.40909 15.75 3.40909H12.2482C11.9258 3.40909 11.6395 3.22178 11.5371 2.94388L10.9859 1.44834C10.9839 1.44276 10.9819 1.43716 10.98 1.43153C10.9727 1.40973 10.9627 1.39081 10.952 1.37551C10.949 1.37106 10.9459 1.36711 10.9431 1.36364H6.87166C6.8688 1.36711 6.86578 1.37106 6.86267 1.37551ZM5.40394 1.02212C5.57651 0.522764 6.07922 0 6.79794 0H11.0168C11.7355 0 12.2383 0.522811 12.4109 1.0222L12.788 2.04545H15.75C16.9927 2.04545 18 2.96124 18 4.09091V12.9545C18 14.0843 16.9927 15 15.75 15H2.25C1.00736 15 0 14.0843 0 12.9545V4.09091C0 2.96124 1.00736 2.04545 2.25 2.04545H5.02655L5.40394 1.02212ZM5.25 8.18182C5.25 6.29905 6.92894 4.77273 9 4.77273C11.071 4.77273 12.75 6.29905 12.75 8.18182C12.75 10.0646 11.071 11.5909 9 11.5909C6.92894 11.5909 5.25 10.0646 5.25 8.18182ZM9 6.13636C7.75732 6.13636 6.75 7.05211 6.75 8.18182C6.75 9.31152 7.75732 10.2273 9 10.2273C10.2427 10.2273 11.25 9.31152 11.25 8.18182C11.25 7.05211 10.2427 6.13636 9 6.13636Z" fill="#FAFAFA"/>
        </svg>
    </symbol>
</svg>